<svg id="visual" viewBox="0 0 960 540" width="960" height="540" xmlns="http://www.w3.org/2000/svg" xmlns:xlink="http://www.w3.org/1999/xlink" version="1.1"><path d="M0 87L87 87L87 125L175 125L175 98L262 98L262 147L349 147L349 93L436 93L436 147L524 147L524 93L611 93L611 131L698 131L698 98L785 98L785 147L873 147L873 179L960 179L960 185L960 0L960 0L873 0L873 0L785 0L785 0L698 0L698 0L611 0L611 0L524 0L524 0L436 0L436 0L349 0L349 0L262 0L262 0L175 0L175 0L87 0L87 0L0 0Z" fill="#fa7268"></path><path d="M0 131L87 131L87 168L175 168L175 212L262 212L262 201L349 201L349 141L436 141L436 195L524 195L524 174L611 174L611 168L698 168L698 179L785 179L785 206L873 206L873 271L960 271L960 233L960 183L960 177L873 177L873 145L785 145L785 96L698 96L698 129L611 129L611 91L524 91L524 145L436 145L436 91L349 91L349 145L262 145L262 96L175 96L175 123L87 123L87 85L0 85Z" fill="#ea5e66"></path><path d="M0 255L87 255L87 320L175 320L175 298L262 298L262 357L349 357L349 212L436 212L436 255L524 255L524 266L611 266L611 325L698 325L698 233L785 233L785 287L873 287L873 395L960 395L960 336L960 231L960 269L873 269L873 204L785 204L785 177L698 177L698 166L611 166L611 172L524 172L524 193L436 193L436 139L349 139L349 199L262 199L262 210L175 210L175 166L87 166L87 129L0 129Z" fill="#d84a64"></path><path d="M0 298L87 298L87 390L175 390L175 357L262 357L262 406L349 406L349 287L436 287L436 336L524 336L524 325L611 325L611 384L698 384L698 271L785 271L785 320L873 320L873 428L960 428L960 417L960 334L960 393L873 393L873 285L785 285L785 231L698 231L698 323L611 323L611 264L524 264L524 253L436 253L436 210L349 210L349 355L262 355L262 296L175 296L175 318L87 318L87 253L0 253Z" fill="#c53762"></path><path d="M0 541L87 541L87 541L175 541L175 541L262 541L262 541L349 541L349 541L436 541L436 541L524 541L524 541L611 541L611 541L698 541L698 541L785 541L785 541L873 541L873 541L960 541L960 541L960 415L960 426L873 426L873 318L785 318L785 269L698 269L698 382L611 382L611 323L524 323L524 334L436 334L436 285L349 285L349 404L262 404L262 355L175 355L175 388L87 388L87 296L0 296Z" fill="#b0235f"></path></svg>